<svg width="56" height="56" viewBox="0 0 56 56" fill="none" xmlns="http://www.w3.org/2000/svg">
<g clip-path="url(#clip0)">
<path d="M48.9342 39.513C50.5928 37.5705 51.289 35.143 50.8944 32.6777L49.428 23.5007C49.3432 22.9701 48.8854 22.5796 48.3479 22.5796H34.7162C34.1787 22.5796 33.7208 22.9701 33.6361 23.5007L32.1697 32.6775C31.7751 35.1432 32.4713 37.571 34.1301 39.5137C35.7283 41.3854 38.0273 42.5995 40.4368 42.8831V47.5741L35.8092 51.229C34.8951 51.9496 34.5228 53.1527 34.8828 54.2229C35.2438 55.2955 36.2532 55.9764 37.5171 55.9997C37.5239 55.9998 37.5306 55.9998 37.5374 55.9998H45.5236C45.5304 55.9998 45.5371 55.9998 45.5437 55.9997C46.8079 55.9764 47.8177 55.2962 48.1792 54.2245C48.5399 53.1549 48.1689 51.9515 47.2554 51.2293L42.6243 47.5737V42.8831C45.0352 42.5996 47.3356 41.3852 48.9342 39.513ZM35.649 24.7671H47.4151L48.4205 31.0592C46.544 32.0002 43.8302 31.8864 42.1572 30.7168C40.1495 29.3134 37.2705 28.9867 34.8553 29.7341L35.649 24.7671ZM45.8994 52.9459C46.1177 53.1185 46.1597 53.3673 46.1064 53.5255C46.0299 53.7521 45.7431 53.8069 45.5122 53.8124H37.5486C37.3184 53.8069 37.0323 53.7521 36.956 53.5253C36.9029 53.3673 36.9451 53.119 37.1643 52.9462L41.5307 49.4975L45.8994 52.9459ZM41.541 40.76C41.5371 40.76 41.5329 40.76 41.529 40.76C41.5259 40.76 41.5231 40.76 41.5199 40.76C39.3921 40.76 37.1986 39.7387 35.7937 38.0932C34.558 36.6461 34.0381 34.8456 34.3297 33.023L34.45 32.2699C36.3282 31.2203 39.1731 31.3 40.9038 32.5097C42.2145 33.426 43.8959 33.884 45.5779 33.8839C46.6766 33.8838 47.7751 33.687 48.7704 33.2957C48.9708 35.0241 48.4445 36.7177 47.2706 38.0925C45.8653 39.7385 43.6706 40.76 41.541 40.76Z" fill="#C72828"/>
<path d="M22.0851 11.7248V6.75522C22.8557 6.35731 23.3841 5.55352 23.3841 4.62809V2.3928C23.3841 1.07341 22.3106 0 20.9914 0H11.6968C10.3774 0 9.30399 1.07341 9.30399 2.3928V4.6282C9.30399 5.55363 9.83238 6.35742 10.6029 6.75533V11.7249C10.6029 15.7729 9.32598 18.8711 7.97399 22.1515C6.51077 25.7019 4.99768 29.3732 4.99768 34.4472V52.7174C4.99768 54.5275 6.46888 56 8.27707 56H24.4108C26.2191 56 27.6901 54.5275 27.6901 52.7174V34.4471C27.6901 29.373 26.1771 25.7017 24.7138 22.1514C23.3621 18.8711 22.0851 15.7727 22.0851 11.7248ZM11.4915 2.3928C11.4915 2.28145 11.5854 2.1875 11.6967 2.1875H20.9913C21.1025 2.1875 21.1964 2.28145 21.1964 2.3928V4.6282C21.1964 4.73955 21.1025 4.8335 20.9913 4.8335H11.6967C11.5854 4.8335 11.4915 4.73955 11.4915 4.6282V2.3928ZM19.927 12.8198H12.7611C12.7799 12.4614 12.7905 12.097 12.7905 11.7248V7.02089H19.8976V11.7248C19.8976 12.097 19.9082 12.4614 19.927 12.8198ZM25.5029 47.0817H21.2611C20.657 47.0817 20.1673 47.5713 20.1673 48.1754C20.1673 48.7795 20.657 49.2692 21.2611 49.2692H25.5029V52.7174C25.5029 53.3213 25.013 53.8125 24.411 53.8125H8.27718C7.67507 53.8125 7.18529 53.3212 7.18529 52.7174V49.2692H11.4395C12.0436 49.2692 12.5333 48.7795 12.5333 48.1754C12.5333 47.5713 12.0436 47.0817 11.4395 47.0817H7.18529V35.5409H12.6393C13.2434 35.5409 13.733 35.0512 13.733 34.4471C13.733 33.0073 14.9043 31.8359 16.3441 31.8359C17.7838 31.8359 18.9551 33.0072 18.9551 34.4471C18.9551 35.0512 19.4448 35.5409 20.0489 35.5409H25.5029V47.0817ZM21.0169 33.3534C20.5206 31.2326 18.6139 29.6484 16.344 29.6484C14.0742 29.6484 12.1674 31.2325 11.6712 33.3534H7.21307C7.4152 29.2515 8.7254 26.0694 9.99667 22.9849C11.0153 20.5135 12.0589 17.9793 12.5307 15.0073H20.1576C20.6293 17.9792 21.6731 20.5135 22.6916 22.9849C23.9629 26.0695 25.2731 29.2515 25.4752 33.3534H21.0169Z" fill="#C72828"/>
<path d="M19.2366 37.9294H13.4546C12.8505 37.9294 12.3609 38.4191 12.3609 39.0232C12.3609 39.6273 12.8505 40.1169 13.4546 40.1169H19.2366C19.8407 40.1169 20.3304 39.6273 20.3304 39.0232C20.3304 38.4191 19.8407 37.9294 19.2366 37.9294Z" fill="#C72828"/>
<path d="M9.59239 43.5994C9.59239 44.2034 10.0821 44.6931 10.6861 44.6931H22.0051C22.6092 44.6931 23.0989 44.2034 23.0989 43.5994C23.0989 42.9953 22.6092 42.5056 22.0051 42.5056H10.6861C10.0821 42.5056 9.59239 42.9953 9.59239 43.5994Z" fill="#C72828"/>
<path d="M16.3503 47.0818H16.344C15.74 47.0818 15.2533 47.5715 15.2533 48.1755C15.2533 48.7796 15.7461 49.2693 16.3502 49.2693C16.9542 49.2693 17.4439 48.7796 17.4439 48.1755C17.4439 47.5715 16.9543 47.0818 16.3503 47.0818Z" fill="#C72828"/>
</g>
<defs>
<clipPath id="clip0">
<rect width="56" height="56" fill="white"/>
</clipPath>
</defs>
</svg>
